<mxfile host="Electron" modified="2023-12-01T08:57:39.425Z" agent="Mozilla/5.0 (Windows NT 10.0; Win64; x64) AppleWebKit/537.36 (KHTML, like Gecko) draw.io/22.1.2 Chrome/114.0.5735.289 Electron/25.9.4 Safari/537.36" etag="tYhocB7FRhA3qs1aSi3_" version="22.1.2" type="device">
  <diagram name="Trang-1" id="HjfQbojyGDbroyJP9X93">
    <mxGraphModel dx="1036" dy="654" grid="1" gridSize="10" guides="1" tooltips="1" connect="1" arrows="1" fold="1" page="1" pageScale="1" pageWidth="850" pageHeight="1100" math="1" shadow="0">
      <root>
        <mxCell id="0" />
        <mxCell id="1" parent="0" />
        <mxCell id="egf9lJMW6QAi6gEiXtuG-1" style="edgeStyle=orthogonalEdgeStyle;rounded=0;orthogonalLoop=1;jettySize=auto;html=1;exitX=1;exitY=0.5;exitDx=0;exitDy=0;endArrow=none;endFill=0;labelBackgroundColor=none;fontColor=default;" edge="1" parent="1" source="egf9lJMW6QAi6gEiXtuG-15">
          <mxGeometry relative="1" as="geometry">
            <mxPoint x="57.89473684210543" y="70" as="targetPoint" />
            <mxPoint x="57.5" y="90" as="sourcePoint" />
          </mxGeometry>
        </mxCell>
        <mxCell id="egf9lJMW6QAi6gEiXtuG-2" value="" style="edgeStyle=orthogonalEdgeStyle;rounded=0;orthogonalLoop=1;jettySize=auto;html=1;endArrow=none;endFill=0;labelBackgroundColor=none;fontColor=default;" edge="1" parent="1" target="egf9lJMW6QAi6gEiXtuG-13">
          <mxGeometry relative="1" as="geometry">
            <mxPoint x="57.473684210526244" y="370.00000000000045" as="sourcePoint" />
          </mxGeometry>
        </mxCell>
        <mxCell id="egf9lJMW6QAi6gEiXtuG-3" value="" style="edgeStyle=orthogonalEdgeStyle;rounded=0;orthogonalLoop=1;jettySize=auto;html=1;endArrow=oval;endFill=1;labelBackgroundColor=none;fontColor=default;" edge="1" parent="1">
          <mxGeometry relative="1" as="geometry">
            <mxPoint x="167.5" y="70" as="targetPoint" />
            <mxPoint x="107.5" y="70" as="sourcePoint" />
          </mxGeometry>
        </mxCell>
        <mxCell id="egf9lJMW6QAi6gEiXtuG-4" value="" style="edgeStyle=orthogonalEdgeStyle;rounded=0;orthogonalLoop=1;jettySize=auto;html=1;endArrow=oval;endFill=1;labelBackgroundColor=none;fontColor=default;" edge="1" parent="1">
          <mxGeometry relative="1" as="geometry">
            <mxPoint x="107.5" y="70" as="sourcePoint" />
            <mxPoint x="57" y="70" as="targetPoint" />
          </mxGeometry>
        </mxCell>
        <mxCell id="egf9lJMW6QAi6gEiXtuG-5" value="" style="edgeStyle=orthogonalEdgeStyle;rounded=0;orthogonalLoop=1;jettySize=auto;html=1;endArrow=oval;endFill=1;labelBackgroundColor=none;fontColor=default;entryX=0;entryY=0.5;entryDx=0;entryDy=0;entryPerimeter=0;" edge="1" parent="1" source="egf9lJMW6QAi6gEiXtuG-7" target="egf9lJMW6QAi6gEiXtuG-21">
          <mxGeometry relative="1" as="geometry">
            <mxPoint x="168" y="230" as="targetPoint" />
            <Array as="points">
              <mxPoint x="168" y="230" />
            </Array>
          </mxGeometry>
        </mxCell>
        <mxCell id="egf9lJMW6QAi6gEiXtuG-6" value="" style="edgeStyle=orthogonalEdgeStyle;rounded=0;orthogonalLoop=1;jettySize=auto;html=1;endArrow=none;endFill=0;labelBackgroundColor=none;fontColor=default;" edge="1" parent="1" source="egf9lJMW6QAi6gEiXtuG-7">
          <mxGeometry relative="1" as="geometry">
            <mxPoint x="168" y="70" as="targetPoint" />
          </mxGeometry>
        </mxCell>
        <mxCell id="egf9lJMW6QAi6gEiXtuG-7" value="" style="pointerEvents=1;verticalLabelPosition=bottom;shadow=0;dashed=0;align=center;html=1;verticalAlign=top;shape=mxgraph.electrical.resistors.resistor_2;direction=south;labelBackgroundColor=none;" vertex="1" parent="1">
          <mxGeometry x="157.5" y="90" width="20" height="80" as="geometry" />
        </mxCell>
        <mxCell id="egf9lJMW6QAi6gEiXtuG-8" value="" style="edgeStyle=orthogonalEdgeStyle;rounded=0;orthogonalLoop=1;jettySize=auto;html=1;endArrow=oval;endFill=1;labelBackgroundColor=none;fontColor=default;" edge="1" parent="1" source="egf9lJMW6QAi6gEiXtuG-10">
          <mxGeometry relative="1" as="geometry">
            <mxPoint x="167.5" y="400" as="targetPoint" />
          </mxGeometry>
        </mxCell>
        <mxCell id="egf9lJMW6QAi6gEiXtuG-9" value="" style="edgeStyle=orthogonalEdgeStyle;rounded=0;orthogonalLoop=1;jettySize=auto;html=1;endArrow=oval;endFill=1;labelBackgroundColor=none;fontColor=default;" edge="1" parent="1" source="egf9lJMW6QAi6gEiXtuG-10">
          <mxGeometry relative="1" as="geometry">
            <mxPoint x="168" y="230" as="targetPoint" />
            <Array as="points">
              <mxPoint x="168" y="231" />
              <mxPoint x="168" y="231" />
            </Array>
          </mxGeometry>
        </mxCell>
        <mxCell id="egf9lJMW6QAi6gEiXtuG-10" value="" style="pointerEvents=1;verticalLabelPosition=bottom;shadow=0;dashed=0;align=center;html=1;verticalAlign=top;shape=mxgraph.electrical.resistors.resistor_2;direction=south;labelBackgroundColor=none;" vertex="1" parent="1">
          <mxGeometry x="157.5" y="290" width="20" height="80" as="geometry" />
        </mxCell>
        <mxCell id="egf9lJMW6QAi6gEiXtuG-11" value="" style="edgeStyle=orthogonalEdgeStyle;rounded=0;orthogonalLoop=1;jettySize=auto;html=1;endArrow=none;endFill=0;labelBackgroundColor=none;fontColor=default;" edge="1" parent="1" source="egf9lJMW6QAi6gEiXtuG-13" target="egf9lJMW6QAi6gEiXtuG-14">
          <mxGeometry relative="1" as="geometry" />
        </mxCell>
        <mxCell id="egf9lJMW6QAi6gEiXtuG-12" value="" style="edgeStyle=orthogonalEdgeStyle;rounded=0;orthogonalLoop=1;jettySize=auto;html=1;endArrow=none;endFill=0;labelBackgroundColor=none;fontColor=default;" edge="1" parent="1" source="egf9lJMW6QAi6gEiXtuG-13">
          <mxGeometry relative="1" as="geometry">
            <mxPoint x="57.5" y="300" as="targetPoint" />
          </mxGeometry>
        </mxCell>
        <mxCell id="egf9lJMW6QAi6gEiXtuG-13" value="" style="shape=waypoint;sketch=0;size=6;pointerEvents=1;points=[];resizable=0;rotatable=0;perimeter=centerPerimeter;snapToPoint=1;verticalAlign=top;shadow=0;dashed=0;labelBackgroundColor=none;" vertex="1" parent="1">
          <mxGeometry x="47.5" y="390" width="20" height="20" as="geometry" />
        </mxCell>
        <mxCell id="egf9lJMW6QAi6gEiXtuG-14" value="" style="pointerEvents=1;verticalLabelPosition=bottom;shadow=0;dashed=0;align=center;html=1;verticalAlign=top;shape=mxgraph.electrical.signal_sources.protective_earth;labelBackgroundColor=none;" vertex="1" parent="1">
          <mxGeometry x="45" y="440" width="25" height="20" as="geometry" />
        </mxCell>
        <mxCell id="egf9lJMW6QAi6gEiXtuG-15" value="" style="pointerEvents=1;verticalLabelPosition=bottom;shadow=0;dashed=0;align=center;html=1;verticalAlign=top;shape=mxgraph.electrical.miscellaneous.batteryStack;direction=north;labelBackgroundColor=none;" vertex="1" parent="1">
          <mxGeometry x="40" y="210" width="35" height="50" as="geometry" />
        </mxCell>
        <mxCell id="egf9lJMW6QAi6gEiXtuG-16" value="" style="edgeStyle=orthogonalEdgeStyle;rounded=0;orthogonalLoop=1;jettySize=auto;html=1;endArrow=none;endFill=0;labelBackgroundColor=none;fontColor=default;" edge="1" parent="1" target="egf9lJMW6QAi6gEiXtuG-15">
          <mxGeometry relative="1" as="geometry">
            <mxPoint x="57.5" y="300" as="sourcePoint" />
          </mxGeometry>
        </mxCell>
        <mxCell id="egf9lJMW6QAi6gEiXtuG-17" value="" style="edgeStyle=orthogonalEdgeStyle;rounded=0;orthogonalLoop=1;jettySize=auto;html=1;endArrow=none;endFill=0;labelBackgroundColor=none;fontColor=default;" edge="1" parent="1" source="egf9lJMW6QAi6gEiXtuG-18" target="egf9lJMW6QAi6gEiXtuG-10">
          <mxGeometry relative="1" as="geometry" />
        </mxCell>
        <mxCell id="egf9lJMW6QAi6gEiXtuG-18" value="" style="pointerEvents=1;verticalLabelPosition=bottom;shadow=0;dashed=0;align=center;html=1;verticalAlign=top;shape=mxgraph.electrical.signal_sources.protective_earth;labelBackgroundColor=none;" vertex="1" parent="1">
          <mxGeometry x="155" y="440" width="25" height="20" as="geometry" />
        </mxCell>
        <mxCell id="egf9lJMW6QAi6gEiXtuG-19" value="" style="edgeStyle=orthogonalEdgeStyle;rounded=0;orthogonalLoop=1;jettySize=auto;html=1;endArrow=oval;endFill=1;labelBackgroundColor=none;fontColor=default;fillColor=#6a00ff;strokeColor=#3700CC;" edge="1" parent="1">
          <mxGeometry relative="1" as="geometry">
            <mxPoint x="220" y="230" as="targetPoint" />
            <mxPoint x="220" y="400" as="sourcePoint" />
          </mxGeometry>
        </mxCell>
        <mxCell id="egf9lJMW6QAi6gEiXtuG-20" value="" style="edgeStyle=orthogonalEdgeStyle;rounded=0;orthogonalLoop=1;jettySize=auto;html=1;endArrow=none;endFill=0;labelBackgroundColor=none;fontColor=default;" edge="1" parent="1" source="egf9lJMW6QAi6gEiXtuG-21" target="egf9lJMW6QAi6gEiXtuG-27">
          <mxGeometry relative="1" as="geometry">
            <Array as="points">
              <mxPoint x="279.76" y="290" />
              <mxPoint x="279.76" y="290" />
            </Array>
          </mxGeometry>
        </mxCell>
        <mxCell id="egf9lJMW6QAi6gEiXtuG-21" value="" style="verticalLabelPosition=bottom;shadow=0;dashed=0;align=center;html=1;verticalAlign=top;shape=mxgraph.electrical.transistors.npn_transistor_5;labelBackgroundColor=none;" vertex="1" parent="1">
          <mxGeometry x="220" y="180" width="60" height="100" as="geometry" />
        </mxCell>
        <mxCell id="egf9lJMW6QAi6gEiXtuG-22" value="" style="edgeStyle=orthogonalEdgeStyle;rounded=0;orthogonalLoop=1;jettySize=auto;html=1;endArrow=none;endFill=0;labelBackgroundColor=none;fontColor=default;entryX=1;entryY=0;entryDx=0;entryDy=0;entryPerimeter=0;" edge="1" parent="1" source="egf9lJMW6QAi6gEiXtuG-25" target="egf9lJMW6QAi6gEiXtuG-21">
          <mxGeometry relative="1" as="geometry">
            <mxPoint x="279.76" y="170" as="targetPoint" />
            <Array as="points" />
          </mxGeometry>
        </mxCell>
        <mxCell id="egf9lJMW6QAi6gEiXtuG-23" value="" style="edgeStyle=orthogonalEdgeStyle;rounded=0;orthogonalLoop=1;jettySize=auto;html=1;endArrow=oval;endFill=0;labelBackgroundColor=none;fontColor=default;" edge="1" parent="1" source="egf9lJMW6QAi6gEiXtuG-25">
          <mxGeometry relative="1" as="geometry">
            <mxPoint x="280" y="50" as="targetPoint" />
          </mxGeometry>
        </mxCell>
        <mxCell id="egf9lJMW6QAi6gEiXtuG-24" value="" style="edgeStyle=orthogonalEdgeStyle;rounded=0;orthogonalLoop=1;jettySize=auto;html=1;endArrow=oval;endFill=1;labelBackgroundColor=none;fontColor=default;" edge="1" parent="1" source="egf9lJMW6QAi6gEiXtuG-25">
          <mxGeometry relative="1" as="geometry">
            <mxPoint x="280" y="70" as="targetPoint" />
          </mxGeometry>
        </mxCell>
        <mxCell id="egf9lJMW6QAi6gEiXtuG-25" value="" style="pointerEvents=1;verticalLabelPosition=bottom;shadow=0;dashed=0;align=center;html=1;verticalAlign=top;shape=mxgraph.electrical.resistors.resistor_2;direction=south;labelBackgroundColor=none;" vertex="1" parent="1">
          <mxGeometry x="270" y="90" width="20" height="80" as="geometry" />
        </mxCell>
        <mxCell id="egf9lJMW6QAi6gEiXtuG-26" value="" style="edgeStyle=orthogonalEdgeStyle;rounded=0;orthogonalLoop=1;jettySize=auto;html=1;endArrow=none;endFill=0;labelBackgroundColor=none;fontColor=default;" edge="1" parent="1" source="egf9lJMW6QAi6gEiXtuG-27">
          <mxGeometry relative="1" as="geometry">
            <mxPoint x="280" y="400" as="targetPoint" />
          </mxGeometry>
        </mxCell>
        <mxCell id="egf9lJMW6QAi6gEiXtuG-27" value="" style="pointerEvents=1;verticalLabelPosition=bottom;shadow=0;dashed=0;align=center;html=1;verticalAlign=top;shape=mxgraph.electrical.resistors.resistor_2;direction=south;labelBackgroundColor=none;" vertex="1" parent="1">
          <mxGeometry x="270" y="300" width="20" height="70" as="geometry" />
        </mxCell>
        <mxCell id="egf9lJMW6QAi6gEiXtuG-28" value="" style="edgeStyle=orthogonalEdgeStyle;rounded=0;orthogonalLoop=1;jettySize=auto;html=1;labelBackgroundColor=none;fontColor=default;endArrow=oval;endFill=1;" edge="1" parent="1">
          <mxGeometry relative="1" as="geometry">
            <mxPoint x="280" y="400" as="sourcePoint" />
            <mxPoint x="220" y="401" as="targetPoint" />
            <Array as="points">
              <mxPoint x="167" y="401" />
            </Array>
          </mxGeometry>
        </mxCell>
        <mxCell id="egf9lJMW6QAi6gEiXtuG-29" value="$$V_{CC}$$" style="text;html=1;strokeColor=none;fillColor=none;align=center;verticalAlign=middle;whiteSpace=wrap;rounded=0;" vertex="1" parent="1">
          <mxGeometry x="221.22000000000003" y="10" width="60" height="30" as="geometry" />
        </mxCell>
        <mxCell id="egf9lJMW6QAi6gEiXtuG-30" value="$$R_C$$" style="text;html=1;strokeColor=none;fillColor=none;align=center;verticalAlign=middle;whiteSpace=wrap;rounded=0;" vertex="1" parent="1">
          <mxGeometry x="280" y="115" width="60" height="30" as="geometry" />
        </mxCell>
        <mxCell id="egf9lJMW6QAi6gEiXtuG-31" value="$$R_E$$" style="text;html=1;strokeColor=none;fillColor=none;align=center;verticalAlign=middle;whiteSpace=wrap;rounded=0;" vertex="1" parent="1">
          <mxGeometry x="280" y="320" width="60" height="30" as="geometry" />
        </mxCell>
        <mxCell id="egf9lJMW6QAi6gEiXtuG-32" value="$$R_1$$" style="text;html=1;strokeColor=none;fillColor=none;align=center;verticalAlign=middle;whiteSpace=wrap;rounded=0;" vertex="1" parent="1">
          <mxGeometry x="158.76" y="115" width="60" height="30" as="geometry" />
        </mxCell>
        <mxCell id="egf9lJMW6QAi6gEiXtuG-33" value="$$R_2$$&lt;br&gt;" style="text;html=1;strokeColor=none;fillColor=none;align=center;verticalAlign=middle;whiteSpace=wrap;rounded=0;" vertex="1" parent="1">
          <mxGeometry x="160" y="320" width="60" height="30" as="geometry" />
        </mxCell>
        <mxCell id="egf9lJMW6QAi6gEiXtuG-34" value="" style="endArrow=classic;html=1;rounded=0;" edge="1" parent="1">
          <mxGeometry width="50" height="50" relative="1" as="geometry">
            <mxPoint x="248.76" y="110" as="sourcePoint" />
            <mxPoint x="248.76" y="160" as="targetPoint" />
          </mxGeometry>
        </mxCell>
        <mxCell id="egf9lJMW6QAi6gEiXtuG-35" value="$$I_{CQ}$$&lt;br&gt;" style="text;html=1;strokeColor=none;fillColor=none;align=center;verticalAlign=middle;whiteSpace=wrap;rounded=0;" vertex="1" parent="1">
          <mxGeometry x="198.76" y="140" width="60" height="30" as="geometry" />
        </mxCell>
        <mxCell id="egf9lJMW6QAi6gEiXtuG-36" value="$$V_{CEQ}$$&lt;br&gt;" style="text;html=1;strokeColor=none;fillColor=none;align=center;verticalAlign=middle;whiteSpace=wrap;rounded=0;" vertex="1" parent="1">
          <mxGeometry x="250" y="220" width="58.76" height="30" as="geometry" />
        </mxCell>
        <mxCell id="egf9lJMW6QAi6gEiXtuG-37" value="$$V_{CC}$$" style="text;html=1;strokeColor=none;fillColor=none;align=center;verticalAlign=middle;whiteSpace=wrap;rounded=0;" vertex="1" parent="1">
          <mxGeometry y="220" width="60" height="30" as="geometry" />
        </mxCell>
        <mxCell id="egf9lJMW6QAi6gEiXtuG-38" value="+" style="text;html=1;strokeColor=none;fillColor=none;align=center;verticalAlign=middle;whiteSpace=wrap;rounded=0;" vertex="1" parent="1">
          <mxGeometry x="10" y="200" width="60" height="30" as="geometry" />
        </mxCell>
        <mxCell id="egf9lJMW6QAi6gEiXtuG-39" value="-" style="text;html=1;strokeColor=none;fillColor=none;align=center;verticalAlign=middle;whiteSpace=wrap;rounded=0;" vertex="1" parent="1">
          <mxGeometry x="10" y="240" width="60" height="30" as="geometry" />
        </mxCell>
        <mxCell id="egf9lJMW6QAi6gEiXtuG-40" value="$$A$$" style="text;html=1;strokeColor=none;fillColor=none;align=center;verticalAlign=middle;whiteSpace=wrap;rounded=0;" vertex="1" parent="1">
          <mxGeometry x="190" y="200" width="60" height="30" as="geometry" />
        </mxCell>
        <mxCell id="egf9lJMW6QAi6gEiXtuG-41" value="$$B$$&lt;br&gt;" style="text;html=1;strokeColor=none;fillColor=none;align=center;verticalAlign=middle;whiteSpace=wrap;rounded=0;" vertex="1" parent="1">
          <mxGeometry x="190" y="410" width="60" height="30" as="geometry" />
        </mxCell>
        <mxCell id="egf9lJMW6QAi6gEiXtuG-42" value="" style="shape=flexArrow;endArrow=classic;html=1;rounded=0;labelBackgroundColor=none;fontColor=default;fillColor=#6a00ff;strokeColor=#3700CC;" edge="1" parent="1">
          <mxGeometry width="50" height="50" relative="1" as="geometry">
            <mxPoint x="303.74" y="229.41000000000005" as="sourcePoint" />
            <mxPoint x="343.74" y="228.82" as="targetPoint" />
          </mxGeometry>
        </mxCell>
        <mxCell id="egf9lJMW6QAi6gEiXtuG-43" style="edgeStyle=orthogonalEdgeStyle;rounded=0;orthogonalLoop=1;jettySize=auto;html=1;exitX=1;exitY=0.5;exitDx=0;exitDy=0;endArrow=none;endFill=0;labelBackgroundColor=none;fontColor=default;" edge="1" parent="1" source="egf9lJMW6QAi6gEiXtuG-58">
          <mxGeometry relative="1" as="geometry">
            <mxPoint x="406.4647368421054" y="70" as="targetPoint" />
            <mxPoint x="406.07" y="90" as="sourcePoint" />
          </mxGeometry>
        </mxCell>
        <mxCell id="egf9lJMW6QAi6gEiXtuG-44" value="" style="edgeStyle=orthogonalEdgeStyle;rounded=0;orthogonalLoop=1;jettySize=auto;html=1;endArrow=none;endFill=0;labelBackgroundColor=none;fontColor=default;" edge="1" parent="1" target="egf9lJMW6QAi6gEiXtuG-56">
          <mxGeometry relative="1" as="geometry">
            <mxPoint x="406.04368421052624" y="370.00000000000045" as="sourcePoint" />
          </mxGeometry>
        </mxCell>
        <mxCell id="egf9lJMW6QAi6gEiXtuG-45" value="" style="edgeStyle=orthogonalEdgeStyle;rounded=0;orthogonalLoop=1;jettySize=auto;html=1;endArrow=oval;endFill=1;labelBackgroundColor=none;fontColor=default;" edge="1" parent="1">
          <mxGeometry relative="1" as="geometry">
            <mxPoint x="516.0699999999999" y="70" as="targetPoint" />
            <mxPoint x="456.07" y="70" as="sourcePoint" />
          </mxGeometry>
        </mxCell>
        <mxCell id="egf9lJMW6QAi6gEiXtuG-46" value="" style="edgeStyle=orthogonalEdgeStyle;rounded=0;orthogonalLoop=1;jettySize=auto;html=1;endArrow=oval;endFill=1;labelBackgroundColor=none;fontColor=default;" edge="1" parent="1">
          <mxGeometry relative="1" as="geometry">
            <mxPoint x="456.07" y="70" as="sourcePoint" />
            <mxPoint x="405.57" y="70" as="targetPoint" />
          </mxGeometry>
        </mxCell>
        <mxCell id="egf9lJMW6QAi6gEiXtuG-47" value="" style="edgeStyle=orthogonalEdgeStyle;rounded=0;orthogonalLoop=1;jettySize=auto;html=1;endArrow=oval;endFill=1;labelBackgroundColor=none;fontColor=default;entryX=0;entryY=0.5;entryDx=0;entryDy=0;entryPerimeter=0;" edge="1" parent="1" source="egf9lJMW6QAi6gEiXtuG-49">
          <mxGeometry relative="1" as="geometry">
            <mxPoint x="568.5699999999999" y="230" as="targetPoint" />
            <Array as="points">
              <mxPoint x="516.5699999999999" y="230" />
            </Array>
          </mxGeometry>
        </mxCell>
        <mxCell id="egf9lJMW6QAi6gEiXtuG-48" value="" style="edgeStyle=orthogonalEdgeStyle;rounded=0;orthogonalLoop=1;jettySize=auto;html=1;endArrow=none;endFill=0;labelBackgroundColor=none;fontColor=default;" edge="1" parent="1" source="egf9lJMW6QAi6gEiXtuG-49">
          <mxGeometry relative="1" as="geometry">
            <mxPoint x="516.5699999999999" y="70" as="targetPoint" />
          </mxGeometry>
        </mxCell>
        <mxCell id="egf9lJMW6QAi6gEiXtuG-49" value="" style="pointerEvents=1;verticalLabelPosition=bottom;shadow=0;dashed=0;align=center;html=1;verticalAlign=top;shape=mxgraph.electrical.resistors.resistor_2;direction=south;labelBackgroundColor=none;" vertex="1" parent="1">
          <mxGeometry x="506.07" y="90" width="20" height="80" as="geometry" />
        </mxCell>
        <mxCell id="egf9lJMW6QAi6gEiXtuG-50" value="" style="edgeStyle=orthogonalEdgeStyle;rounded=0;orthogonalLoop=1;jettySize=auto;html=1;endArrow=oval;endFill=1;labelBackgroundColor=none;fontColor=default;" edge="1" parent="1">
          <mxGeometry relative="1" as="geometry">
            <mxPoint x="570" y="400" as="targetPoint" />
            <mxPoint x="516" y="400" as="sourcePoint" />
          </mxGeometry>
        </mxCell>
        <mxCell id="egf9lJMW6QAi6gEiXtuG-51" value="" style="edgeStyle=orthogonalEdgeStyle;rounded=0;orthogonalLoop=1;jettySize=auto;html=1;endArrow=oval;endFill=1;labelBackgroundColor=none;fontColor=default;" edge="1" parent="1" source="egf9lJMW6QAi6gEiXtuG-53">
          <mxGeometry relative="1" as="geometry">
            <mxPoint x="516.5699999999999" y="230" as="targetPoint" />
            <Array as="points">
              <mxPoint x="516.5699999999999" y="231" />
              <mxPoint x="516.5699999999999" y="231" />
            </Array>
          </mxGeometry>
        </mxCell>
        <mxCell id="egf9lJMW6QAi6gEiXtuG-52" value="" style="edgeStyle=orthogonalEdgeStyle;rounded=0;orthogonalLoop=1;jettySize=auto;html=1;endArrow=none;endFill=0;" edge="1" parent="1" source="egf9lJMW6QAi6gEiXtuG-53" target="egf9lJMW6QAi6gEiXtuG-61">
          <mxGeometry relative="1" as="geometry" />
        </mxCell>
        <mxCell id="egf9lJMW6QAi6gEiXtuG-53" value="" style="pointerEvents=1;verticalLabelPosition=bottom;shadow=0;dashed=0;align=center;html=1;verticalAlign=top;shape=mxgraph.electrical.resistors.resistor_2;direction=south;labelBackgroundColor=none;" vertex="1" parent="1">
          <mxGeometry x="506.07" y="290" width="20" height="80" as="geometry" />
        </mxCell>
        <mxCell id="egf9lJMW6QAi6gEiXtuG-54" value="" style="edgeStyle=orthogonalEdgeStyle;rounded=0;orthogonalLoop=1;jettySize=auto;html=1;endArrow=none;endFill=0;labelBackgroundColor=none;fontColor=default;" edge="1" parent="1" source="egf9lJMW6QAi6gEiXtuG-56" target="egf9lJMW6QAi6gEiXtuG-57">
          <mxGeometry relative="1" as="geometry" />
        </mxCell>
        <mxCell id="egf9lJMW6QAi6gEiXtuG-55" value="" style="edgeStyle=orthogonalEdgeStyle;rounded=0;orthogonalLoop=1;jettySize=auto;html=1;endArrow=none;endFill=0;labelBackgroundColor=none;fontColor=default;" edge="1" parent="1" source="egf9lJMW6QAi6gEiXtuG-56">
          <mxGeometry relative="1" as="geometry">
            <mxPoint x="406.07" y="300" as="targetPoint" />
          </mxGeometry>
        </mxCell>
        <mxCell id="egf9lJMW6QAi6gEiXtuG-56" value="" style="shape=waypoint;sketch=0;size=6;pointerEvents=1;points=[];resizable=0;rotatable=0;perimeter=centerPerimeter;snapToPoint=1;verticalAlign=top;shadow=0;dashed=0;labelBackgroundColor=none;" vertex="1" parent="1">
          <mxGeometry x="396.07" y="390" width="20" height="20" as="geometry" />
        </mxCell>
        <mxCell id="egf9lJMW6QAi6gEiXtuG-57" value="" style="pointerEvents=1;verticalLabelPosition=bottom;shadow=0;dashed=0;align=center;html=1;verticalAlign=top;shape=mxgraph.electrical.signal_sources.protective_earth;labelBackgroundColor=none;" vertex="1" parent="1">
          <mxGeometry x="393.57" y="440" width="25" height="20" as="geometry" />
        </mxCell>
        <mxCell id="egf9lJMW6QAi6gEiXtuG-58" value="" style="pointerEvents=1;verticalLabelPosition=bottom;shadow=0;dashed=0;align=center;html=1;verticalAlign=top;shape=mxgraph.electrical.miscellaneous.batteryStack;direction=north;labelBackgroundColor=none;" vertex="1" parent="1">
          <mxGeometry x="388.57" y="210" width="35" height="50" as="geometry" />
        </mxCell>
        <mxCell id="egf9lJMW6QAi6gEiXtuG-59" value="" style="edgeStyle=orthogonalEdgeStyle;rounded=0;orthogonalLoop=1;jettySize=auto;html=1;endArrow=none;endFill=0;labelBackgroundColor=none;fontColor=default;" edge="1" parent="1" target="egf9lJMW6QAi6gEiXtuG-58">
          <mxGeometry relative="1" as="geometry">
            <mxPoint x="406.07" y="300" as="sourcePoint" />
          </mxGeometry>
        </mxCell>
        <mxCell id="egf9lJMW6QAi6gEiXtuG-60" value="" style="edgeStyle=orthogonalEdgeStyle;rounded=0;orthogonalLoop=1;jettySize=auto;html=1;endArrow=oval;endFill=1;labelBackgroundColor=none;fontColor=default;" edge="1" parent="1" source="egf9lJMW6QAi6gEiXtuG-61">
          <mxGeometry relative="1" as="geometry">
            <mxPoint x="516" y="400" as="targetPoint" />
            <Array as="points">
              <mxPoint x="516" y="400" />
              <mxPoint x="516" y="400" />
            </Array>
          </mxGeometry>
        </mxCell>
        <mxCell id="egf9lJMW6QAi6gEiXtuG-61" value="" style="pointerEvents=1;verticalLabelPosition=bottom;shadow=0;dashed=0;align=center;html=1;verticalAlign=top;shape=mxgraph.electrical.signal_sources.protective_earth;labelBackgroundColor=none;" vertex="1" parent="1">
          <mxGeometry x="503.57" y="440" width="25" height="20" as="geometry" />
        </mxCell>
        <mxCell id="egf9lJMW6QAi6gEiXtuG-62" value="" style="edgeStyle=orthogonalEdgeStyle;rounded=0;orthogonalLoop=1;jettySize=auto;html=1;endArrow=oval;endFill=1;labelBackgroundColor=none;fontColor=default;fillColor=#6a00ff;strokeColor=#3700CC;" edge="1" parent="1">
          <mxGeometry relative="1" as="geometry">
            <mxPoint x="569" y="230" as="targetPoint" />
            <mxPoint x="569" y="400" as="sourcePoint" />
          </mxGeometry>
        </mxCell>
        <mxCell id="egf9lJMW6QAi6gEiXtuG-63" value="$$R_1$$" style="text;html=1;strokeColor=none;fillColor=none;align=center;verticalAlign=middle;whiteSpace=wrap;rounded=0;" vertex="1" parent="1">
          <mxGeometry x="507.33" y="115" width="60" height="30" as="geometry" />
        </mxCell>
        <mxCell id="egf9lJMW6QAi6gEiXtuG-64" value="$$R_2$$&lt;br&gt;" style="text;html=1;strokeColor=none;fillColor=none;align=center;verticalAlign=middle;whiteSpace=wrap;rounded=0;" vertex="1" parent="1">
          <mxGeometry x="508.57" y="320" width="60" height="30" as="geometry" />
        </mxCell>
        <mxCell id="egf9lJMW6QAi6gEiXtuG-65" value="$$V_{CC}$$" style="text;html=1;strokeColor=none;fillColor=none;align=center;verticalAlign=middle;whiteSpace=wrap;rounded=0;" vertex="1" parent="1">
          <mxGeometry x="343.74" y="220" width="60" height="30" as="geometry" />
        </mxCell>
        <mxCell id="egf9lJMW6QAi6gEiXtuG-66" value="$$A$$" style="text;html=1;strokeColor=none;fillColor=none;align=center;verticalAlign=middle;whiteSpace=wrap;rounded=0;" vertex="1" parent="1">
          <mxGeometry x="540" y="200" width="60" height="30" as="geometry" />
        </mxCell>
        <mxCell id="egf9lJMW6QAi6gEiXtuG-67" value="$$B$$&lt;br&gt;" style="text;html=1;strokeColor=none;fillColor=none;align=center;verticalAlign=middle;whiteSpace=wrap;rounded=0;" vertex="1" parent="1">
          <mxGeometry x="540" y="410" width="60" height="30" as="geometry" />
        </mxCell>
        <mxCell id="egf9lJMW6QAi6gEiXtuG-68" value="" style="shape=flexArrow;endArrow=classic;html=1;rounded=0;labelBackgroundColor=none;fontColor=default;fillColor=#6a00ff;strokeColor=#3700CC;" edge="1" parent="1">
          <mxGeometry width="50" height="50" relative="1" as="geometry">
            <mxPoint x="580" y="320.00000000000006" as="sourcePoint" />
            <mxPoint x="620" y="319.40999999999997" as="targetPoint" />
          </mxGeometry>
        </mxCell>
        <mxCell id="egf9lJMW6QAi6gEiXtuG-69" value="" style="edgeStyle=orthogonalEdgeStyle;rounded=0;orthogonalLoop=1;jettySize=auto;html=1;endArrow=none;endFill=0;" edge="1" parent="1" source="egf9lJMW6QAi6gEiXtuG-71">
          <mxGeometry relative="1" as="geometry">
            <mxPoint x="672.5" y="400" as="targetPoint" />
          </mxGeometry>
        </mxCell>
        <mxCell id="egf9lJMW6QAi6gEiXtuG-70" style="edgeStyle=orthogonalEdgeStyle;rounded=0;orthogonalLoop=1;jettySize=auto;html=1;exitX=1;exitY=0.5;exitDx=0;exitDy=0;endArrow=none;endFill=0;" edge="1" parent="1" source="egf9lJMW6QAi6gEiXtuG-71">
          <mxGeometry relative="1" as="geometry">
            <mxPoint x="672.5726495726497" y="250" as="targetPoint" />
          </mxGeometry>
        </mxCell>
        <mxCell id="egf9lJMW6QAi6gEiXtuG-71" value="" style="pointerEvents=1;verticalLabelPosition=bottom;shadow=0;dashed=0;align=center;html=1;verticalAlign=top;shape=mxgraph.electrical.miscellaneous.batteryStack;direction=north;labelBackgroundColor=none;" vertex="1" parent="1">
          <mxGeometry x="655" y="300" width="35" height="50" as="geometry" />
        </mxCell>
        <mxCell id="egf9lJMW6QAi6gEiXtuG-72" value="" style="edgeStyle=orthogonalEdgeStyle;rounded=0;orthogonalLoop=1;jettySize=auto;html=1;endArrow=none;endFill=0;" edge="1" parent="1">
          <mxGeometry relative="1" as="geometry">
            <mxPoint x="703.5499999999998" y="250.00000000000023" as="sourcePoint" />
            <mxPoint x="672" y="250" as="targetPoint" />
          </mxGeometry>
        </mxCell>
        <mxCell id="egf9lJMW6QAi6gEiXtuG-73" value="" style="pointerEvents=1;verticalLabelPosition=bottom;shadow=0;dashed=0;align=center;html=1;verticalAlign=top;shape=mxgraph.electrical.resistors.resistor_2;direction=west;labelBackgroundColor=none;" vertex="1" parent="1">
          <mxGeometry x="701.55" y="242.5" width="58.78" height="15" as="geometry" />
        </mxCell>
        <mxCell id="egf9lJMW6QAi6gEiXtuG-74" value="" style="edgeStyle=orthogonalEdgeStyle;rounded=0;orthogonalLoop=1;jettySize=auto;html=1;endArrow=oval;endFill=1;" edge="1" parent="1">
          <mxGeometry relative="1" as="geometry">
            <mxPoint x="672" y="400" as="sourcePoint" />
            <mxPoint x="762" y="400" as="targetPoint" />
          </mxGeometry>
        </mxCell>
        <mxCell id="egf9lJMW6QAi6gEiXtuG-75" value="" style="edgeStyle=orthogonalEdgeStyle;rounded=0;orthogonalLoop=1;jettySize=auto;html=1;endArrow=none;endFill=0;fillColor=#6a00ff;strokeColor=#3700CC;" edge="1" parent="1" target="egf9lJMW6QAi6gEiXtuG-76">
          <mxGeometry relative="1" as="geometry">
            <mxPoint x="760" y="400" as="sourcePoint" />
            <Array as="points">
              <mxPoint x="760" y="400" />
              <mxPoint x="760" y="250" />
            </Array>
          </mxGeometry>
        </mxCell>
        <mxCell id="egf9lJMW6QAi6gEiXtuG-76" value="" style="shape=waypoint;sketch=0;size=6;pointerEvents=1;points=[];fillColor=default;resizable=0;rotatable=0;perimeter=centerPerimeter;snapToPoint=1;verticalAlign=top;shadow=0;dashed=0;labelBackgroundColor=none;" vertex="1" parent="1">
          <mxGeometry x="750" y="240" width="20" height="20" as="geometry" />
        </mxCell>
        <mxCell id="egf9lJMW6QAi6gEiXtuG-77" value="+" style="text;html=1;strokeColor=none;fillColor=none;align=center;verticalAlign=middle;whiteSpace=wrap;rounded=0;" vertex="1" parent="1">
          <mxGeometry x="356.07" y="200" width="60" height="30" as="geometry" />
        </mxCell>
        <mxCell id="egf9lJMW6QAi6gEiXtuG-78" value="+" style="text;html=1;strokeColor=none;fillColor=none;align=center;verticalAlign=middle;whiteSpace=wrap;rounded=0;" vertex="1" parent="1">
          <mxGeometry x="630" y="290" width="60" height="30" as="geometry" />
        </mxCell>
        <mxCell id="egf9lJMW6QAi6gEiXtuG-79" value="-" style="text;html=1;strokeColor=none;fillColor=none;align=center;verticalAlign=middle;whiteSpace=wrap;rounded=0;" vertex="1" parent="1">
          <mxGeometry x="358.57" y="240" width="60" height="30" as="geometry" />
        </mxCell>
        <mxCell id="egf9lJMW6QAi6gEiXtuG-80" value="-" style="text;html=1;strokeColor=none;fillColor=none;align=center;verticalAlign=middle;whiteSpace=wrap;rounded=0;" vertex="1" parent="1">
          <mxGeometry x="630" y="330" width="60" height="30" as="geometry" />
        </mxCell>
        <mxCell id="egf9lJMW6QAi6gEiXtuG-81" value="$$A$$" style="text;html=1;strokeColor=none;fillColor=none;align=center;verticalAlign=middle;whiteSpace=wrap;rounded=0;" vertex="1" parent="1">
          <mxGeometry x="730" y="220" width="60" height="30" as="geometry" />
        </mxCell>
        <mxCell id="egf9lJMW6QAi6gEiXtuG-82" value="$$B$$&lt;br&gt;" style="text;html=1;strokeColor=none;fillColor=none;align=center;verticalAlign=middle;whiteSpace=wrap;rounded=0;" vertex="1" parent="1">
          <mxGeometry x="730" y="410" width="60" height="30" as="geometry" />
        </mxCell>
        <mxCell id="egf9lJMW6QAi6gEiXtuG-83" value="" style="endArrow=classic;html=1;rounded=0;" edge="1" parent="1">
          <mxGeometry width="50" height="50" relative="1" as="geometry">
            <mxPoint x="713.76" y="270" as="sourcePoint" />
            <mxPoint x="743.76" y="270" as="targetPoint" />
          </mxGeometry>
        </mxCell>
        <mxCell id="egf9lJMW6QAi6gEiXtuG-84" value="$$V_{TH}$$" style="text;html=1;strokeColor=none;fillColor=none;align=center;verticalAlign=middle;whiteSpace=wrap;rounded=0;" vertex="1" parent="1">
          <mxGeometry x="610" y="310" width="60" height="30" as="geometry" />
        </mxCell>
        <mxCell id="egf9lJMW6QAi6gEiXtuG-85" value="$$R_{TH}$$" style="text;html=1;strokeColor=none;fillColor=none;align=center;verticalAlign=middle;whiteSpace=wrap;rounded=0;" vertex="1" parent="1">
          <mxGeometry x="701.55" y="220" width="60" height="30" as="geometry" />
        </mxCell>
        <mxCell id="egf9lJMW6QAi6gEiXtuG-86" value="$$I_{BQ}$$" style="text;html=1;strokeColor=none;fillColor=none;align=center;verticalAlign=middle;whiteSpace=wrap;rounded=0;" vertex="1" parent="1">
          <mxGeometry x="698.76" y="270" width="60" height="30" as="geometry" />
        </mxCell>
        <mxCell id="egf9lJMW6QAi6gEiXtuG-87" value="$$I$$" style="text;html=1;strokeColor=none;fillColor=none;align=center;verticalAlign=middle;whiteSpace=wrap;rounded=0;" vertex="1" parent="1">
          <mxGeometry x="718.76" y="310" width="60" height="30" as="geometry" />
        </mxCell>
        <mxCell id="egf9lJMW6QAi6gEiXtuG-88" value="$$V_{Thevenin} = V_{AB} = \frac{V_{CC}}{R_1 + R_2} R_2$$" style="text;html=1;strokeColor=none;fillColor=none;align=center;verticalAlign=middle;whiteSpace=wrap;rounded=0;" vertex="1" parent="1">
          <mxGeometry x="648.76" y="60" width="110" height="70" as="geometry" />
        </mxCell>
        <mxCell id="egf9lJMW6QAi6gEiXtuG-89" value="$$R_{Thevenin} = R_1 // R_2 = \frac{{R_1}{R_2}}{R_1 + R_2}&lt;br&gt;$$" style="text;html=1;strokeColor=none;fillColor=none;align=center;verticalAlign=middle;whiteSpace=wrap;rounded=0;" vertex="1" parent="1">
          <mxGeometry x="680" y="140" width="60" height="30" as="geometry" />
        </mxCell>
      </root>
    </mxGraphModel>
  </diagram>
</mxfile>
